<?xml version="1.0" encoding="iso-8859-1"?>
<!-- Generator: Adobe Illustrator 18.0.0, SVG Export Plug-In . SVG Version: 6.00 Build 0)  -->
<!DOCTYPE svg PUBLIC "-//W3C//DTD SVG 1.1//EN" "http://www.w3.org/Graphics/SVG/1.1/DTD/svg11.dtd">
<svg version="1.1" id="Capa_1" xmlns="http://www.w3.org/2000/svg" xmlns:xlink="http://www.w3.org/1999/xlink" x="0px" y="0px"
	 viewBox="0 0 60 60" style="enable-background:new 0 0 60 60;" xml:space="preserve">
<g>
	<path fill="#192673ca" d="M55.894,37.041C58.582,33.27,60,28.912,60,24.414C60,11.504,48.337,1,34,1c-8.246,0-15.969,3.592-20.824,9.42
		C17.021,8.613,21.38,7.586,26,7.586c15.439,0,28,11.4,28,25.414c0,5.506-1.945,10.604-5.235,14.77
		c4.946,1.886,9.853,2.601,10.096,2.635c0.047,0.007,0.094,0.01,0.14,0.01c0.375,0,0.724-0.211,0.895-0.554
		c0.192-0.385,0.117-0.85-0.188-1.153C57.753,46.753,56.403,42.618,55.894,37.041z"/>
	<path fill="#192673ca" d="M26,9.586C11.663,9.586,0,20.09,0,33c0,4.498,1.418,8.855,4.106,12.627c-0.51,5.577-1.859,9.712-3.813,11.666
		c-0.304,0.304-0.38,0.769-0.188,1.153C0.275,58.789,0.625,59,1,59c0.046,0,0.092-0.003,0.139-0.01
		c0.35-0.049,8.433-1.213,14.317-4.586c3.33,1.334,6.875,2.01,10.544,2.01c14.337,0,26-10.504,26-23.414S40.337,9.586,26,9.586z
		 M13,37c-2.206,0-4-1.794-4-4s1.794-4,4-4s4,1.794,4,4S15.206,37,13,37z M26,37c-2.206,0-4-1.794-4-4s1.794-4,4-4s4,1.794,4,4
		S28.206,37,26,37z M39,37c-2.206,0-4-1.794-4-4s1.794-4,4-4s4,1.794,4,4S41.206,37,39,37z"/>
</g>
<g>
</g>
<g>
</g>
<g>
</g>
<g>
</g>
<g>
</g>
<g>
</g>
<g>
</g>
<g>
</g>
<g>
</g>
<g>
</g>
<g>
</g>
<g>
</g>
<g>
</g>
<g>
</g>
<g>
</g>
</svg>
